<svg xmlns="http://www.w3.org/2000/svg"  viewBox="0 0 50 50" width="25px" height="25px"><path d="M 20.582031 8.3828125 C 20.202062 8.3219688 19.805219 8.5312813 19.667969 8.9257812 L 18.191406 13.171875 C 18.062406 13.543875 17.685969 13.772797 17.292969 13.716797 L 12.015625 12.96875 C 11.416625 12.88375 10.932422 13.444531 11.107422 14.019531 L 12.578125 18.833984 C 12.703125 19.242984 12.490844 19.678937 12.089844 19.835938 L 7.2285156 21.734375 C 6.6535156 21.959375 6.521375 22.707281 6.984375 23.113281 L 10.691406 26.367188 C 11.048406 26.680188 11.065516 27.2275 10.728516 27.5625 L 8.1074219 30.162109 C 7.7474219 30.520109 7.7959844 31.112203 8.2089844 31.408203 L 10.705078 33.197266 C 10.972078 33.388266 11.099297 33.718109 11.029297 34.037109 L 10.371094 37.035156 C 10.246094 37.606156 10.746172 38.120578 11.326172 38.017578 L 17.445312 36.921875 L 17.458984 36.921875 C 19.058127 39.429455 21.858371 41.099609 25.046875 41.099609 C 28.235118 41.099609 31.033603 39.429111 32.632812 36.921875 L 32.755859 36.921875 L 38.675781 38.017578 C 39.255781 38.120578 39.755859 37.606156 39.630859 37.035156 L 38.972656 34.037109 C 38.902656 33.718109 39.029875 33.388266 39.296875 33.197266 L 41.792969 31.408203 C 42.205969 31.112203 42.254531 30.519109 41.894531 30.162109 L 39.273438 27.5625 C 38.936437 27.2285 38.953547 26.680187 39.310547 26.367188 L 43.017578 23.113281 C 43.479578 22.706281 43.347437 21.959375 42.773438 21.734375 L 37.914062 19.835938 C 37.513063 19.678938 37.300781 19.242984 37.425781 18.833984 L 38.896484 14.019531 C 39.071484 13.444531 38.585328 12.88375 37.986328 12.96875 L 32.710938 13.716797 C 32.317937 13.772797 31.939547 13.543875 31.810547 13.171875 L 30.335938 8.9257812 C 30.152938 8.3997813 29.505641 8.2031094 29.056641 8.5371094 L 25.498047 11.185547 C 25.204047 11.404547 24.799859 11.404547 24.505859 11.185547 L 20.945312 8.5371094 C 20.833062 8.4536094 20.708687 8.4030938 20.582031 8.3828125 z M 25.046875 17.699219 C 29.464875 17.699219 33.046875 21.281219 33.046875 25.699219 L 33.046875 32.099609 C 33.046875 36.517609 29.464875 40.099609 25.046875 40.099609 C 20.628875 40.099609 17.046875 36.517609 17.046875 32.099609 L 17.046875 25.699219 C 17.046875 21.281219 20.628875 17.699219 25.046875 17.699219 z M 19.414062 23.601562 C 19.220328 23.614734 19.041656 23.740547 18.972656 23.935547 C 18.882656 24.196547 19.02025 24.481266 19.28125 24.572266 C 19.664488 24.705903 20.066011 24.82068 20.480469 24.921875 C 19.560997 25.508171 18.945312 26.529926 18.945312 27.699219 C 18.945313 29.519219 20.427094 31 22.246094 31 C 23.001014 31 23.689314 30.734984 24.246094 30.306641 L 24.246094 31.849609 C 24.246094 32.291609 24.604875 32.650391 25.046875 32.650391 C 25.488875 32.650391 25.845703 32.291609 25.845703 31.849609 L 25.845703 30.306641 C 26.402483 30.734984 27.090782 31 27.845703 31 C 29.665703 31 31.145484 29.519219 31.146484 27.699219 C 31.146484 26.49502 30.491303 25.451304 29.525391 24.875 C 29.943281 24.786014 30.361484 24.694092 30.775391 24.582031 C 31.042391 24.510031 31.200906 24.23575 31.128906 23.96875 C 31.057906 23.70175 30.785625 23.544234 30.515625 23.615234 C 26.660625 24.658234 22.584375 24.661953 19.609375 23.626953 C 19.545125 23.604703 19.478641 23.597172 19.414062 23.601562 z M 25.509766 25.371094 C 25.330843 25.550609 25.180961 25.756106 25.046875 25.972656 C 24.918083 25.764553 24.771895 25.568588 24.601562 25.394531 C 24.640467 25.394745 24.677806 25.398438 24.716797 25.398438 C 24.978048 25.398438 25.245083 25.380673 25.509766 25.371094 z M 22.246094 25.400391 C 23.515094 25.400391 24.546875 26.431219 24.546875 27.699219 C 24.546875 28.967219 23.515094 30 22.246094 30 C 20.977094 30 19.945312 28.967219 19.945312 27.699219 C 19.945313 26.431219 20.977094 25.400391 22.246094 25.400391 z M 27.845703 25.400391 C 29.113703 25.400391 30.145484 26.431219 30.146484 27.699219 C 30.146484 28.967219 29.114703 30 27.845703 30 C 26.576703 30 25.546875 28.967219 25.546875 27.699219 C 25.546875 26.431219 26.576703 25.400391 27.845703 25.400391 z M 22.246094 26.900391 C 21.804094 26.900391 21.445312 27.257219 21.445312 27.699219 C 21.445313 28.141219 21.804094 28.5 22.246094 28.5 C 22.688094 28.5 23.046875 28.141219 23.046875 27.699219 C 23.046875 27.257219 22.688094 26.900391 22.246094 26.900391 z M 27.845703 26.900391 C 27.403703 26.900391 27.046875 27.257219 27.046875 27.699219 C 27.046875 28.141219 27.403703 28.5 27.845703 28.5 C 28.287703 28.5 28.646484 28.141219 28.646484 27.699219 C 28.646484 27.257219 28.287703 26.900391 27.845703 26.900391 z M 25.046875 34.201172 C 23.91875 34.201047 22.790922 34.410578 21.669922 34.830078 C 21.411922 34.928078 21.278953 35.216609 21.376953 35.474609 C 21.473953 35.733609 21.764484 35.863578 22.021484 35.767578 C 22.22948 35.68958 22.437972 35.626293 22.646484 35.564453 L 22.646484 36.099609 C 22.646484 36.541609 23.003312 36.900391 23.445312 36.900391 C 23.887312 36.900391 24.246094 36.541609 24.246094 36.099609 L 24.246094 35.244141 C 25.523087 35.118406 26.80235 35.291618 28.070312 35.767578 C 28.128312 35.789578 28.187094 35.800781 28.246094 35.800781 C 28.448094 35.800781 28.639844 35.677563 28.714844 35.476562 C 28.812844 35.217563 28.680875 34.929031 28.421875 34.832031 C 27.302375 34.412031 26.175 34.201297 25.046875 34.201172 z"/></svg>